<svg xmlns="http://www.w3.org/2000/svg" xmlns:xlink="http://www.w3.org/1999/xlink" version="1.1" id="Layer_1" x="0px" y="0px" width="100px" height="68.749px" viewBox="0 0 100 68.749" enable-background="new 0 0 100 68.749" xml:space="preserve">
<path d="M44.495,59.533c-6.119,0-11.649-3.603-14.081-5.447c-7.605,1.851-13.209,0.727-16.644-3.207  c-2.474-2.834-3.11-6.465-3.224-8.924C6.009,40.317,0,35.572,0,28.662c0-9.354,5.903-14.938,15.792-14.938  c0.812,0,1.566,0.039,2.236,0.094c1.378-4.045,4.195-7.338,8.408-9.815C30.954,1.346,35.312,0,39.391,0  c6.576,0,10.828,3.42,13.012,5.838c2.42-1.123,4.765-1.689,6.995-1.689c7.934,0,11.931,6.774,13.471,10.297  c9.199,0.816,13.178,6.953,13.806,12.718c0.691,6.334-2.217,12.43-6.735,14.85c-0.15,3.226-1.176,5.875-3.063,7.898  c-2.538,2.72-6.441,4.099-11.602,4.099c0,0,0,0-0.001,0c-3.289,0-6.433-0.569-8.431-1.028  C52.791,58.341,47.975,59.533,44.495,59.533z M31.114,47.815c0.729,0,1.443,0.267,1.999,0.767c0.051,0.045,5.647,4.969,11.382,4.969  c3.429,0,6.216-1.819,8.518-5.56c0.717-1.163,2.131-1.691,3.433-1.289c0.04,0.011,4.366,1.325,8.828,1.325l0,0  c2.361,0,5.533-0.38,7.229-2.198c1.13-1.211,1.614-3.11,1.438-5.646c-0.102-1.477,0.892-2.806,2.336-3.127  c2.741-0.608,4.904-5.102,4.453-9.245c-0.305-2.788-2.003-7.466-9.958-7.476c-1.325-0.002-2.492-0.876-2.865-2.147  c-0.021-0.071-2.504-8.058-8.508-8.058c-1.851,0-3.966,0.706-6.284,2.097c-0.688,0.413-1.513,0.531-2.291,0.33  c-0.777-0.201-1.44-0.707-1.841-1.401c-0.115-0.193-3.163-5.175-9.591-5.175c-2.998,0-6.336,1.069-9.923,3.179  c-3.656,2.15-5.642,4.843-6.247,8.474c-0.134,0.809-0.597,1.528-1.277,1.987c-0.68,0.459-1.521,0.619-2.321,0.441  c-0.009-0.002-1.666-0.355-3.83-0.355c-4.211,0-9.81,0.928-9.81,8.955c0,4.766,6.14,7.938,7.612,7.94  c0.862,0.001,1.686,0.375,2.252,1.025c0.567,0.65,0.827,1.515,0.712,2.369c-0.004,0.03-0.525,4.403,1.734,6.967  c1.194,1.353,3.02,2.011,5.583,2.011c1.831,0,3.989-0.352,6.419-1.044C30.564,47.854,30.84,47.815,31.114,47.815z"/>
<path d="M89.649,68.749c-5.706,0-10.35-4.466-10.35-9.953c0-5.489,4.644-9.954,10.35-9.954c5.707,0,10.351,4.465,10.351,9.954  C100,64.283,95.356,68.749,89.649,68.749z M89.649,54.824c-2.408,0-4.367,1.781-4.367,3.972c0,2.189,1.959,3.971,4.367,3.971  c2.409,0,4.368-1.781,4.368-3.971C94.018,56.605,92.059,54.824,89.649,54.824z"/>
<polygon points="31.483,41.556 20.882,30.951 31.365,19.543 34.302,22.242 26.404,30.835 34.304,38.736 "/>
<polygon points="55.096,41.556 52.276,38.736 60.177,30.835 52.278,22.242 55.215,19.543 65.699,30.951 "/>
<rect x="40.676" y="19.526" transform="matrix(0.9068 0.4215 -0.4215 0.9068 16.8501 -15.1379)" width="3.988" height="22.046"/>
</svg>